<svg data-v-423bf9ae="" xmlns="http://www.w3.org/2000/svg" viewBox="0 0 393 90" class="iconLeft"><!----><!----><!----><g data-v-423bf9ae="" id="5924f076-cac5-4be8-a38d-9fccc35491f9" fill="#0097fc" transform="matrix(4.18105229412219,0,0,4.18105229412219,107.0732600032382,0.9934756902640345)"><path d="M4.27 7.63C5.03 7.63 5.53 7.97 5.53 7.97L5.53 11.21C5.53 11.90 5.57 12.49 5.59 12.61C5.14 12.91 4.54 13.10 4.03 13.10C2.72 13.10 2.06 11.96 2.06 10.36C2.06 8.69 2.84 7.63 4.27 7.63ZM6.83 3.42L6.55 3.35L4.40 3.56L4.40 3.99L5.53 4.10L5.53 7.24C5.53 7.24 5.03 6.86 4.12 6.86C2.02 6.86 0.70 8.36 0.70 10.88C0.70 12.60 1.74 14.14 3.36 14.14C4.47 14.14 5.05 13.64 5.57 13.17C5.68 13.86 6.15 14.14 6.72 14.14C7.35 14.14 7.78 13.82 7.78 13.82L7.78 13.44L7.35 13.44C6.93 13.44 6.83 13.19 6.83 12.84ZM14.85 10.40C15.05 8.13 14.13 6.86 12.18 6.86C10.42 6.86 8.95 8.30 8.95 10.63C8.95 12.67 10.21 14.14 12.22 14.14C13.68 14.14 14.57 13.41 14.57 13.41L14.57 12.94C14.57 12.94 13.73 13.27 12.78 13.27C11.26 13.27 10.32 12.07 10.28 10.40ZM12.12 7.57C13.33 7.57 13.57 8.55 13.58 9.66L10.30 9.74C10.43 8.41 11.10 7.57 12.12 7.57ZM20.24 6.86C19.28 6.86 18.51 7.35 18.02 7.83L18.05 3.42L17.77 3.35L15.61 3.56L15.61 3.99L16.74 4.10L16.74 13.58C17.32 13.92 18.31 14.14 19.25 14.14C21.70 14.14 22.88 12.57 22.88 10.12C22.88 8.53 22.08 6.86 20.24 6.86ZM19.31 13.44C18.56 13.44 18.05 13.09 18.05 13.09L18.05 9.79C18.05 9.10 17.99 8.39 17.99 8.39C18.44 8.11 19.03 7.90 19.66 7.90C21.03 7.90 21.52 8.93 21.52 10.64C21.52 12.05 20.89 13.44 19.31 13.44ZM28.20 13.17C28.31 13.86 28.77 14.14 29.34 14.14C29.97 14.14 30.41 13.82 30.41 13.82L30.41 13.44L29.97 13.44C29.55 13.44 29.46 13.19 29.46 12.84L29.46 9.48C29.46 7.78 28.81 6.86 27.15 6.86C25.69 6.86 24.60 7.60 24.60 7.60L24.60 8.08C24.60 8.08 25.72 7.76 26.68 7.76C27.96 7.76 28.18 8.34 28.18 9.37L28.18 10.12C27.78 10.12 26.94 10.14 26.28 10.25C24.78 10.51 24.18 11.30 24.18 12.38C24.18 13.31 24.82 14.07 25.97 14.07C26.98 14.07 27.66 13.66 28.20 13.17ZM26.59 13.20C25.83 13.20 25.45 12.78 25.45 12.18C25.45 11.49 25.89 11.06 26.60 10.88C27.41 10.67 28.15 10.68 28.15 10.68L28.15 11.68C28.15 12.28 28.20 12.67 28.20 12.67C27.75 12.94 27.27 13.20 26.59 13.20ZM33.75 8.44C34.16 8.16 34.68 7.92 35.15 7.92C35.77 7.92 36.02 8.33 36.62 8.58L37.17 7.56C36.60 7.32 36.33 6.86 35.62 6.86C34.92 6.86 34.24 7.45 33.75 7.94L33.81 7L33.53 6.93L31.37 7.13L31.37 7.56L32.51 7.67L32.51 13.40L31.39 13.57L31.39 14L35.21 14L35.21 13.57L33.81 13.40L33.81 9.84C33.81 9.09 33.75 8.44 33.75 8.44ZM37.87 15.64C37.87 17.08 39.31 17.72 41.12 17.70C42.94 17.67 44.42 16.62 44.42 15.13C44.42 13.93 43.58 13.22 42.21 13.13L40.56 13.03C39.80 12.99 39.59 12.35 40.10 11.90C40.31 11.93 40.54 11.96 40.80 11.96C42.78 11.96 43.89 10.74 43.89 9.30C43.89 8.68 43.65 8.18 43.36 7.83L44.76 7.80L44.80 6.97L42.49 7.18C42.25 7.06 41.75 6.86 41.05 6.86C39.13 6.86 38.02 7.85 38.02 9.52C38.02 10.54 38.54 11.38 39.55 11.76C39.12 12.00 38.75 12.53 38.75 12.99C38.75 13.40 38.89 13.66 39.10 13.85C38.39 14.21 37.87 14.83 37.87 15.64ZM40.49 14.22L42.01 14.31C42.87 14.35 43.46 14.74 43.46 15.51C43.46 16.37 42.70 16.86 41.27 16.86C39.89 16.86 39.05 16.09 39.05 15.20C39.05 14.73 39.23 14.38 39.52 14.06C39.82 14.15 40.15 14.20 40.49 14.22ZM40.88 7.60C42.01 7.60 42.56 8.29 42.56 9.49C42.56 10.47 41.97 11.21 41.03 11.21C39.89 11.21 39.35 10.46 39.35 9.25C39.35 8.36 39.86 7.60 40.88 7.60ZM47.88 3.42L47.60 3.35L45.44 3.56L45.44 3.99L46.58 4.10L46.58 13.40L45.46 13.57L45.46 14L48.86 14L48.86 13.57L47.88 13.40L47.88 9.70C47.88 8.95 47.82 8.37 47.82 8.37C47.82 8.37 48.59 7.90 49.60 7.90C50.61 7.90 51.04 8.53 51.04 9.69L51.04 13.40L50.06 13.57L50.06 14L53.47 14L53.47 13.57L52.35 13.40L52.35 9.37C52.35 7.88 51.56 6.86 50.09 6.86C49.21 6.86 48.45 7.34 47.82 7.83ZM55.73 17.50L57.05 17.57C57.05 17.57 57.30 15.99 58.04 14.01L60.45 7.62L61.42 7.43L61.42 7L58.45 7L58.45 7.43L59.50 7.62L58.24 11.34C57.96 12.18 57.76 12.92 57.76 12.92L57.71 12.92C57.71 12.92 57.51 12.15 57.20 11.30L55.85 7.62L56.76 7.43L56.76 7L53.49 7L53.49 7.43L54.40 7.62L57.11 14.25C56.18 15.83 55.73 17.50 55.73 17.50ZM66.08 13.17C66.19 13.86 66.65 14.14 67.23 14.14C67.86 14.14 68.29 13.82 68.29 13.82L68.29 13.44L67.86 13.44C67.44 13.44 67.34 13.19 67.34 12.84L67.34 9.48C67.34 7.78 66.70 6.86 65.03 6.86C63.57 6.86 62.48 7.60 62.48 7.60L62.48 8.08C62.48 8.08 63.60 7.76 64.57 7.76C65.84 7.76 66.07 8.34 66.07 9.37L66.07 10.12C65.66 10.12 64.82 10.14 64.16 10.25C62.66 10.51 62.06 11.30 62.06 12.38C62.06 13.31 62.71 14.07 63.85 14.07C64.86 14.07 65.55 13.66 66.08 13.17ZM64.47 13.20C63.71 13.20 63.34 12.78 63.34 12.18C63.34 11.49 63.77 11.06 64.48 10.88C65.30 10.67 66.04 10.68 66.04 10.68L66.04 11.68C66.04 12.28 66.08 12.67 66.08 12.67C65.63 12.94 65.16 13.20 64.47 13.20Z"></path></g><!----><g data-v-423bf9ae="" id="9cdbaf55-d690-4feb-a95c-4d7c2e9e915d" transform="matrix(2.8125,0,0,2.8125,0,1.0290013551712036)" stroke="none" fill="#0097fc"><path d="M0 31.984h32v-32H0v32zm2-30h28v28H2v-28z"></path><path d="M6.439 16.831h8.959l-4.48-7.741zM16.602 13.331h8.959L21.082 5.59zM6.439 26.41h8.959l-4.48-7.741zM16.602 22.91h8.959l-4.479-7.741z"></path></g><!----></svg>
